<svg width="78" height="83" viewBox="0 0 78 83" fill="none" xmlns="http://www.w3.org/2000/svg">
<path d="M69.6665 0.25H8.33317C6.29984 0.25 4.3498 1.11919 2.91202 2.66637C1.47424 4.21354 0.666504 6.31196 0.666504 8.5V58C0.666504 60.188 1.47424 62.2865 2.91202 63.8336C4.3498 65.3808 6.29984 66.25 8.33317 66.25H31.3332V74.5H19.8332V82.75H58.1665V74.5H46.6665V66.25H69.6665C71.6998 66.25 73.6499 65.3808 75.0877 63.8336C76.5254 62.2865 77.3332 60.188 77.3332 58V8.5C77.3332 6.31196 76.5254 4.21354 75.0877 2.66637C73.6499 1.11919 71.6998 0.25 69.6665 0.25ZM69.6665 58H8.33317V8.5H69.6665V58ZM57.2082 45.625C57.2082 47.5395 56.5014 49.3757 55.2433 50.7294C53.9853 52.0832 52.279 52.8438 50.4998 52.8438C48.7207 52.8438 47.0144 52.0832 45.7563 50.7294C44.4983 49.3757 43.7915 47.5395 43.7915 45.625L31.3332 38.86C30.363 39.6637 29.2031 40.1589 27.9848 40.2896C26.7665 40.4203 25.5385 40.1812 24.44 39.5994C23.3415 39.0176 22.4164 38.1164 21.7694 36.9978C21.1225 35.8793 20.7796 34.5881 20.7796 33.2706C20.7796 31.9531 21.1225 30.662 21.7694 29.5434C22.4164 28.4249 23.3415 27.5236 24.44 26.9419C25.5385 26.3601 26.7665 26.121 27.9848 26.2517C29.2031 26.3823 30.363 26.8776 31.3332 27.6812L43.7915 20.875C43.77 19.2198 44.2719 17.606 45.2147 16.298C46.1576 14.9901 47.4854 14.0657 48.9806 13.6766C50.4757 13.2874 52.0494 13.4564 53.4435 14.1561C54.8376 14.8557 55.9695 16.0443 56.6534 17.527C57.3373 19.0097 57.5327 20.6985 57.2075 22.3164C56.8824 23.9343 56.056 25.3853 54.8638 26.4315C53.6717 27.4776 52.1846 28.0568 50.6464 28.074C49.1082 28.0912 47.6103 27.5455 46.3982 26.5262L34.0548 33.25L46.3982 39.8912C47.3876 39.0482 48.5789 38.5244 49.8339 38.3809C51.0888 38.2373 52.3559 38.4799 53.4878 39.0803C54.6198 39.6807 55.5703 40.6144 56.2288 41.7729C56.8874 42.9313 57.227 44.2671 57.2082 45.625Z" fill="#FF445A" fill-opacity="0.7"/>
</svg>
