<svg width="102" height="79" viewBox="0 0 102 79" fill="none" xmlns="http://www.w3.org/2000/svg">
<path fill-rule="evenodd" clip-rule="evenodd" d="M66.0069 29.7903C66.3037 30.1212 66.5392 30.5143 66.6999 30.9471C66.8606 31.3799 66.9433 31.8439 66.9433 32.3125C66.9433 32.7811 66.8606 33.2451 66.6999 33.6779C66.5392 34.1107 66.3037 34.5038 66.0069 34.8348L46.8819 56.2098C46.5858 56.5415 46.234 56.8047 45.8468 56.9843C45.4595 57.1639 45.0444 57.2564 44.6251 57.2564C44.2059 57.2564 43.7907 57.1639 43.4035 56.9843C43.0162 56.8047 42.6645 56.5415 42.3684 56.2098L32.8059 45.5223C32.5095 45.191 32.2744 44.7978 32.114 44.3651C31.9536 43.9323 31.8711 43.4684 31.8711 43C31.8711 42.5316 31.9536 42.0678 32.114 41.635C32.2744 41.2022 32.5095 40.809 32.8059 40.4778C33.1022 40.1465 33.4541 39.8838 33.8413 39.7045C34.2285 39.5253 34.6435 39.433 35.0626 39.433C35.4817 39.433 35.8968 39.5253 36.284 39.7045C36.6712 39.8838 37.023 40.1465 37.3194 40.4778L44.6251 48.6501L61.4934 29.7903C61.7895 29.4585 62.1412 29.1953 62.5285 29.0157C62.9157 28.8361 63.3309 28.7437 63.7501 28.7437C64.1694 28.7437 64.5845 28.8361 64.9718 29.0157C65.359 29.1953 65.7108 29.4585 66.0069 29.7903Z" fill="#FF445A" fill-opacity="0.7"/>
<path d="M28.0883 9.81175C34.4599 3.67096 42.5866 0.279487 51 0.25C68.1488 0.25 82.3841 14.5 83.9333 32.8754C94.0823 34.4785 102 43.9761 102 55.6326C102 68.4291 92.4503 78.625 80.8796 78.625H24.1039C10.8885 78.625 0 66.9827 0 52.3907C0 39.8294 8.07075 29.4269 18.7552 26.7906C19.6669 20.6417 23.205 14.5143 28.0883 9.81175ZM32.2511 15.2054C27.4252 19.858 24.9007 25.4654 24.9007 29.8544V33.0464L22.0639 33.3955C13.158 34.4856 6.375 42.658 6.375 52.3907C6.375 62.8431 14.2162 71.5 24.1039 71.5H80.8796C89.1225 71.5 95.625 64.2895 95.625 55.6326C95.625 46.9686 89.1225 39.7581 80.8796 39.7581H77.6921V36.1956C77.6985 20.3781 65.841 7.375 51 7.375C44.1142 7.40574 37.4649 10.1782 32.2511 15.2054Z" fill="#FF445A" fill-opacity="0.7"/>
</svg>
