<svg width="606" height="76" viewBox="0 0 606 76" fill="none" xmlns="http://www.w3.org/2000/svg">
<path d="M57.3 70.1864C53.3 70.1864 49.7 69.3264 46.5 67.6064C43.34 65.8464 40.84 63.3464 39 60.1064C37.2 56.8264 36.3 53.0064 36.3 48.6464C36.3 44.2864 37.2 40.4864 39 37.2464C40.84 33.9664 43.34 31.4664 46.5 29.7464C49.7 27.9864 53.3 27.1064 57.3 27.1064C60.02 27.1064 62.44 27.4264 64.56 28.0664C66.72 28.7064 68.86 29.6264 70.98 30.8264C71.86 31.3064 72.3 32.0664 72.3 33.1064C72.3 33.7064 72.08 34.2464 71.64 34.7264C71.2 35.1664 70.62 35.3864 69.9 35.3864C69.5 35.3864 69.14 35.3064 68.82 35.1464C67.06 34.2264 65.34 33.5264 63.66 33.0464C61.98 32.5664 60.04 32.3264 57.84 32.3264C54.4 32.3264 51.46 33.0464 49.02 34.4864C46.62 35.8864 44.8 37.8264 43.56 40.3064C42.36 42.7464 41.76 45.5264 41.76 48.6464C41.76 51.7664 42.36 54.5664 43.56 57.0464C44.8 59.4864 46.62 61.4264 49.02 62.8664C51.46 64.2664 54.4 64.9664 57.84 64.9664C60.04 64.9664 61.98 64.7264 63.66 64.2464C65.34 63.7664 67.06 63.0664 68.82 62.1464C69.14 61.9864 69.5 61.9064 69.9 61.9064C70.62 61.9064 71.2 62.1264 71.64 62.5664C72.08 63.0064 72.3 63.5464 72.3 64.1864C72.3 65.2264 71.86 65.9864 70.98 66.4664C68.86 67.6664 66.72 68.5864 64.56 69.2264C62.44 69.8664 60.02 70.1864 57.3 70.1864ZM93.9188 69.8864C93.1588 69.8864 92.4988 69.6264 91.9388 69.1064C91.4188 68.5864 91.1588 67.9464 91.1588 67.1864V51.8864L76.8188 31.7864C76.4988 31.2664 76.3388 30.7264 76.3388 30.1664C76.3388 29.4064 76.5788 28.7664 77.0588 28.2464C77.5788 27.6864 78.2188 27.4064 78.9788 27.4064C79.9788 27.4064 80.7788 27.8664 81.3788 28.7864L93.9188 47.0264L106.459 28.7864C107.059 27.8664 107.859 27.4064 108.859 27.4064C109.619 27.4064 110.259 27.6864 110.779 28.2464C111.299 28.7664 111.539 29.4064 111.499 30.1664C111.499 30.7264 111.339 31.2664 111.019 31.7864L96.6188 51.8864V67.1864C96.6188 67.9464 96.3588 68.5864 95.8388 69.1064C95.3188 69.6264 94.6788 69.8864 93.9188 69.8864ZM121.559 69.5864C120.799 69.5864 120.159 69.3264 119.639 68.8064C119.119 68.2864 118.859 67.6464 118.859 66.8864V30.4664C118.859 29.7064 119.119 29.0664 119.639 28.5464C120.159 27.9864 120.799 27.7064 121.559 27.7064H135.719C139.999 27.7064 143.299 28.6864 145.619 30.6464C147.979 32.6064 149.159 35.2464 149.159 38.5664C149.159 40.8864 148.599 42.8264 147.479 44.3864C146.399 45.9064 144.999 47.0464 143.279 47.8064C145.679 48.5664 147.639 49.7864 149.159 51.4664C150.719 53.1464 151.499 55.2664 151.499 57.8264C151.499 61.5064 150.259 64.3864 147.779 66.4664C145.299 68.5464 141.399 69.5864 136.079 69.5864H121.559ZM134.279 45.8264C137.839 45.8264 140.339 45.2264 141.779 44.0264C143.219 42.8264 143.939 41.1464 143.939 38.9864C143.939 37.1064 143.159 35.6064 141.599 34.4864C140.079 33.3664 137.979 32.8064 135.299 32.8064H124.319V45.8264H134.279ZM135.539 64.4864C139.419 64.4864 142.159 63.8864 143.759 62.6864C145.399 61.4864 146.219 59.7864 146.219 57.5864C146.219 53.0264 142.679 50.7464 135.599 50.7464H124.319V64.4864H135.539ZM163.161 69.5864C162.401 69.5864 161.761 69.3264 161.241 68.8064C160.721 68.2864 160.461 67.6464 160.461 66.8864V30.4664C160.461 29.7064 160.721 29.0664 161.241 28.5464C161.761 27.9864 162.401 27.7064 163.161 27.7064H187.221C187.941 27.7064 188.541 27.9664 189.021 28.4864C189.541 28.9664 189.801 29.5664 189.801 30.2864C189.801 31.0064 189.541 31.6064 189.021 32.0864C188.541 32.5664 187.941 32.8064 187.221 32.8064H165.921V46.0664H185.061C185.781 46.0664 186.381 46.3264 186.861 46.8464C187.381 47.3264 187.641 47.9264 187.641 48.6464C187.641 49.3664 187.381 49.9664 186.861 50.4464C186.381 50.9264 185.781 51.1664 185.061 51.1664H165.921V64.4864H187.221C187.941 64.4864 188.541 64.7464 189.021 65.2664C189.541 65.7464 189.801 66.3464 189.801 67.0664C189.801 67.7864 189.541 68.3864 189.021 68.8664C188.541 69.3464 187.941 69.5864 187.221 69.5864H163.161ZM201.422 69.8864C200.662 69.8864 200.022 69.6264 199.502 69.1064C198.982 68.5864 198.722 67.9464 198.722 67.1864V30.4664C198.722 29.7064 198.982 29.0664 199.502 28.5464C200.022 27.9864 200.662 27.7064 201.422 27.7064H215.402C220.842 27.7064 224.922 28.8264 227.642 31.0664C230.362 33.3064 231.722 36.2464 231.722 39.8864C231.722 42.2864 231.042 44.4864 229.682 46.4864C228.362 48.4464 226.422 49.8664 223.862 50.7464C226.742 51.5064 228.702 53.3064 229.742 56.1464C230.822 58.9464 231.362 61.7064 231.362 64.4264V67.1864C231.362 67.9464 231.102 68.5864 230.582 69.1064C230.062 69.6264 229.422 69.8864 228.662 69.8864C227.822 69.8864 227.142 69.6464 226.622 69.1664C226.142 68.6464 225.902 67.9864 225.902 67.1864V65.3864C225.902 63.3864 225.722 61.5464 225.362 59.8664C225.002 58.1464 224.142 56.6264 222.782 55.3064C221.422 53.9464 219.362 53.2664 216.602 53.2664H204.182V67.1864C204.182 67.9464 203.902 68.5864 203.342 69.1064C202.822 69.6264 202.182 69.8864 201.422 69.8864ZM215.042 48.1064C218.482 48.1064 221.202 47.4264 223.202 46.0664C225.242 44.7064 226.262 42.7864 226.262 40.3064C226.262 37.9064 225.382 36.0664 223.622 34.7864C221.902 33.5064 218.942 32.8664 214.742 32.8664H204.182V48.1064H215.042Z" fill="#FF445A"/>
<path d="M288.52 69.5307C287.76 69.5307 287.12 69.2707 286.6 68.7507C286.08 68.2307 285.82 67.5907 285.82 66.8307V30.1107C285.82 29.3507 286.08 28.7107 286.6 28.1907C287.12 27.6307 287.76 27.3507 288.52 27.3507H302.2C306 27.3507 309.1 27.9907 311.5 29.2707C313.9 30.5507 315.62 32.1907 316.66 34.1907C317.7 36.1907 318.22 38.3507 318.22 40.6707C318.22 42.9907 317.7 45.1507 316.66 47.1507C315.62 49.1507 313.9 50.7907 311.5 52.0707C309.1 53.3507 306 53.9907 302.2 53.9907H291.28V66.8307C291.28 67.5907 291 68.2307 290.44 68.7507C289.92 69.2707 289.28 69.5307 288.52 69.5307ZM301.66 48.8307C305.74 48.8307 308.6 48.0507 310.24 46.4907C311.92 44.9307 312.76 42.9907 312.76 40.6707C312.76 38.3507 311.92 36.4107 310.24 34.8507C308.6 33.2907 305.74 32.5107 301.66 32.5107H291.28V48.8307H301.66ZM343.053 69.8307C340.213 69.8307 337.473 69.2307 334.833 68.0307C332.193 66.8307 330.033 65.0107 328.353 62.5707C326.673 60.0907 325.833 57.0707 325.833 53.5107V29.8107C325.833 29.0507 326.093 28.4107 326.613 27.8907C327.133 27.3307 327.773 27.0507 328.533 27.0507C329.293 27.0507 329.933 27.3307 330.453 27.8907C331.013 28.4107 331.293 29.0507 331.293 29.8107V53.6907C331.293 56.0907 331.833 58.1307 332.913 59.8107C334.033 61.4907 335.493 62.7507 337.293 63.5907C339.093 64.4307 341.013 64.8507 343.053 64.8507C345.093 64.8507 347.013 64.4307 348.813 63.5907C350.613 62.7507 352.053 61.4907 353.133 59.8107C354.253 58.1307 354.813 56.0907 354.813 53.6907V29.8107C354.813 29.0507 355.073 28.4107 355.592 27.8907C356.113 27.3307 356.753 27.0507 357.513 27.0507C358.273 27.0507 358.913 27.3307 359.433 27.8907C359.993 28.4107 360.273 29.0507 360.273 29.8107V53.5107C360.273 57.0707 359.433 60.0907 357.753 62.5707C356.073 65.0107 353.913 66.8307 351.273 68.0307C348.633 69.2307 345.893 69.8307 343.053 69.8307ZM375.381 69.2307C374.341 69.2307 373.441 68.8707 372.681 68.1507C371.961 67.3907 371.601 66.4907 371.601 65.4507V29.8107C371.601 29.0507 371.861 28.4107 372.381 27.8907C372.901 27.3307 373.541 27.0507 374.301 27.0507C375.061 27.0507 375.701 27.3307 376.221 27.8907C376.781 28.4107 377.061 29.0507 377.061 29.8107V63.7707H396.681C397.441 63.7707 398.081 64.0507 398.601 64.6107C399.161 65.1307 399.441 65.7707 399.441 66.5307C399.441 67.2907 399.161 67.9307 398.601 68.4507C398.081 68.9707 397.441 69.2307 396.681 69.2307H375.381ZM419.372 69.8307C414.292 69.8307 409.532 68.8707 405.092 66.9507C404.612 66.7507 404.212 66.4307 403.892 65.9907C403.572 65.5107 403.412 65.0107 403.412 64.4907C403.412 63.8107 403.632 63.2307 404.072 62.7507C404.552 62.2307 405.152 61.9707 405.872 61.9707C406.272 61.9707 406.652 62.0507 407.012 62.2107C410.692 63.8507 414.632 64.6707 418.832 64.6707C425.832 64.6707 429.332 62.3707 429.332 57.7707C429.332 56.5707 428.872 55.5707 427.952 54.7707C427.072 53.9707 425.972 53.3507 424.652 52.9107C423.332 52.4307 421.452 51.8707 419.012 51.2307C415.772 50.3907 413.152 49.5907 411.152 48.8307C409.152 48.0307 407.432 46.8507 405.992 45.2907C404.552 43.7307 403.832 41.6507 403.832 39.0507C403.832 36.7707 404.432 34.7107 405.632 32.8707C406.832 30.9907 408.592 29.5107 410.912 28.4307C413.272 27.3107 416.092 26.7507 419.372 26.7507C423.772 26.7507 427.752 27.4107 431.312 28.7307C432.432 29.1307 432.992 29.9307 432.992 31.1307C432.992 31.7707 432.772 32.3507 432.332 32.8707C431.892 33.3907 431.312 33.6507 430.592 33.6507C430.352 33.6507 430.032 33.5707 429.632 33.4107C426.512 32.3307 423.292 31.7907 419.972 31.7907C416.812 31.7907 414.232 32.3907 412.232 33.5907C410.272 34.7907 409.292 36.4707 409.292 38.6307C409.292 40.0707 409.752 41.2507 410.672 42.1707C411.632 43.0507 412.812 43.7507 414.212 44.2707C415.652 44.7507 417.592 45.2707 420.032 45.8307C423.192 46.5907 425.732 47.3507 427.652 48.1107C429.612 48.8707 431.272 50.0507 432.632 51.6507C434.032 53.2507 434.732 55.4107 434.732 58.1307C434.732 60.3707 434.092 62.3907 432.812 64.1907C431.532 65.9507 429.732 67.3307 427.412 68.3307C425.092 69.3307 422.412 69.8307 419.372 69.8307ZM445.844 69.2307C445.084 69.2307 444.444 68.9707 443.924 68.4507C443.404 67.9307 443.144 67.2907 443.144 66.5307V30.1107C443.144 29.3507 443.404 28.7107 443.924 28.1907C444.444 27.6307 445.084 27.3507 445.844 27.3507H469.904C470.624 27.3507 471.224 27.6107 471.704 28.1307C472.224 28.6107 472.484 29.2107 472.484 29.9307C472.484 30.6507 472.224 31.2507 471.704 31.7307C471.224 32.2107 470.624 32.4507 469.904 32.4507H448.604V45.7107H467.744C468.464 45.7107 469.064 45.9707 469.544 46.4907C470.064 46.9707 470.324 47.5707 470.324 48.2907C470.324 49.0107 470.064 49.6107 469.544 50.0907C469.064 50.5707 468.464 50.8107 467.744 50.8107H448.604V64.1307H469.904C470.624 64.1307 471.224 64.3907 471.704 64.9107C472.224 65.3907 472.484 65.9907 472.484 66.7107C472.484 67.4307 472.224 68.0307 471.704 68.5107C471.224 68.9907 470.624 69.2307 469.904 69.2307H445.844Z" fill="#FF445A"/>
<path d="M264.241 23.0001C263.995 23.0032 263.756 23.1406 263.562 23.3911C263.367 23.6417 263.227 23.9917 263.163 24.3876L256.316 66.7738L250.703 35.5851C250.635 35.2092 250.498 34.8783 250.312 34.6388C250.125 34.3993 249.899 34.2634 249.663 34.2501C249.428 34.2369 249.196 34.347 249 34.5649C248.805 34.7829 248.655 35.0977 248.572 35.4651L245.469 49.2501H240.625C240.327 49.2501 240.04 49.4476 239.83 49.7992C239.619 50.1509 239.5 50.6278 239.5 51.1251C239.5 51.6223 239.619 52.0993 239.83 52.4509C240.04 52.8025 240.327 53.0001 240.625 53.0001H246.25C246.479 53.0001 246.702 52.8838 246.89 52.6667C247.079 52.4496 247.222 52.142 247.303 51.7851L249.508 41.9901L255.297 74.1651C255.367 74.5561 255.512 74.8982 255.71 75.1396C255.907 75.3809 256.147 75.5083 256.391 75.5024C256.636 75.4964 256.873 75.3575 257.066 75.1067C257.26 74.8558 257.398 74.5068 257.462 74.1126L264.281 31.8876L267.67 51.6388C267.737 52.0304 267.879 52.375 268.073 52.6206C268.268 52.8661 268.506 52.9994 268.75 53.0001H274.375C274.673 53.0001 274.96 52.8025 275.17 52.4509C275.381 52.0993 275.5 51.6223 275.5 51.1251C275.5 50.6278 275.381 50.1509 275.17 49.7992C274.96 49.4476 274.673 49.2501 274.375 49.2501H269.598L265.332 24.3613C265.265 23.9667 265.122 23.6198 264.924 23.3739C264.727 23.128 264.487 22.9967 264.241 23.0001Z" fill="#BBBBBB"/>
</svg>
