<svg width="40" height="68" viewBox="0 0 40 68" fill="none" xmlns="http://www.w3.org/2000/svg">
<path d="M14.2857 58.7273H25.7143V55.6364H14.2857V58.7273ZM5.71429 68C4.14286 68 2.79809 67.3952 1.68 66.1856C0.56 64.974 0 63.5182 0 61.8182V6.18182C0 4.48182 0.56 3.026 1.68 1.81436C2.79809 0.604788 4.14286 0 5.71429 0H34.2857C35.8571 0 37.2029 0.604788 38.3229 1.81436C39.441 3.026 40 4.48182 40 6.18182V61.8182C40 63.5182 39.441 64.974 38.3229 66.1856C37.2029 67.3952 35.8571 68 34.2857 68H5.71429ZM5.71429 52.5455V61.8182H34.2857V52.5455H5.71429ZM5.71429 46.3636H34.2857V15.4545H5.71429V46.3636ZM5.71429 9.27273H34.2857V6.18182H5.71429V9.27273Z" fill="#FF445A" fill-opacity="0.7"/>
</svg>
