<svg width="16" height="28" viewBox="0 0 16 28" fill="none" xmlns="http://www.w3.org/2000/svg">
<path d="M10.996 3.41395e-05C10.8867 0.00169921 10.7807 0.07496 10.6942 0.208601C10.6076 0.342242 10.5454 0.528899 10.517 0.739998L7.474 23.3449L4.979 6.71171C4.94892 6.51128 4.88816 6.33477 4.80528 6.20705C4.72239 6.07933 4.62156 6.00683 4.51699 5.99976C4.41241 5.9927 4.30937 6.05142 4.22236 6.16766C4.13535 6.2839 4.06877 6.4518 4.032 6.64771L2.653 13.9993H0.5C0.367392 13.9993 0.240214 14.1047 0.146446 14.2922C0.052678 14.4798 0 14.7341 0 14.9993C0 15.2645 0.052678 15.5188 0.146446 15.7064C0.240214 15.8939 0.367392 15.9993 0.5 15.9993H3C3.1017 15.9993 3.20099 15.9372 3.28461 15.8215C3.36822 15.7057 3.4322 15.5417 3.468 15.3513L4.448 10.1275L7.021 27.2867C7.0522 27.4952 7.11657 27.6777 7.20433 27.8064C7.2921 27.9351 7.39847 28.0031 7.50729 27.9999C7.61612 27.9967 7.72145 27.9226 7.80731 27.7889C7.89316 27.6551 7.95485 27.469 7.983 27.2587L11.014 4.7398L12.52 15.2733C12.5497 15.4821 12.6127 15.6659 12.6993 15.7969C12.7859 15.9278 12.8914 15.9989 13 15.9993H15.5C15.6326 15.9993 15.7598 15.8939 15.8536 15.7064C15.9473 15.5188 16 15.2645 16 14.9993C16 14.7341 15.9473 14.4798 15.8536 14.2922C15.7598 14.1047 15.6326 13.9993 15.5 13.9993H13.377L11.481 0.725998C11.451 0.515524 11.3873 0.330531 11.2997 0.199396C11.2121 0.0682612 11.1054 -0.00177367 10.996 3.41395e-05Z" fill="#BBBBBB"/>
</svg>
